<svg xmlns="http://www.w3.org/2000/svg" viewBox="0 0 96 96">
  <title>tbr.</title>
  <rect width="96" height="96" fill="#F3F1EB"/>
  <clipPath id="ct"><rect x="2.40" y="26.24" width="23.56" height="55.36"/></clipPath>
  <clipPath id="cb"><rect x="28.36" y="14.40" width="23.56" height="67.20"/></clipPath>
  <clipPath id="cr"><rect x="54.33" y="35.78" width="23.38" height="45.82"/></clipPath>
  <rect x="2.40" y="14.40" width="23.56" height="11.84" fill="#F3F1EB"/>
  <rect x="2.40" y="26.24" width="23.56" height="55.36" fill="#333E56"/>
  <rect x="28.36" y="14.40" width="23.56" height="67.20" fill="#F3F1EB"/>
  <rect x="54.33" y="14.40" width="23.38" height="21.38" fill="#F3F1EB"/>
  <rect x="54.33" y="35.78" width="23.38" height="45.82" fill="#32463A"/>
  <rect x="80.11" y="14.40" width="13.49" height="53.71" fill="#F3F1EB"/>
  <rect x="80.11" y="68.11" width="13.49" height="13.49" fill="#4B2A28"/>
  <text x="14.18" y="54.40" text-anchor="middle" dominant-baseline="middle" clip-path="url(#ct)" font-family="Liberation Serif, Times New Roman, Georgia, serif" font-size="34" fill="#F3F1EB">t</text>
  <text x="40.14" y="50.20" text-anchor="middle" dominant-baseline="middle" clip-path="url(#cb)" font-family="Liberation Serif, Times New Roman, Georgia, serif" font-size="32" fill="#111111">b</text>
  <text x="66.02" y="59.40" text-anchor="middle" dominant-baseline="middle" clip-path="url(#cr)" font-family="Liberation Serif, Times New Roman, Georgia, serif" font-size="30" fill="#F3F1EB">r</text>
  <rect x="0.00" y="12.00" width="2.40" height="72.00" fill="#111111"/>
  <rect x="93.60" y="12.00" width="2.40" height="72.00" fill="#111111"/>
  <rect x="0.00" y="12.00" width="96.00" height="2.40" fill="#111111"/>
  <rect x="0.00" y="81.60" width="96.00" height="2.40" fill="#111111"/>
  <rect x="25.96" y="12.00" width="2.40" height="72.00" fill="#111111"/>
  <rect x="51.93" y="12.00" width="2.40" height="72.00" fill="#111111"/>
  <rect x="77.71" y="12.00" width="2.40" height="72.00" fill="#111111"/>
  <rect x="2.40" y="25.04" width="23.56" height="2.40" fill="#111111"/>
  <rect x="54.33" y="34.58" width="23.38" height="2.40" fill="#111111"/>
  <rect x="80.11" y="66.91" width="13.49" height="2.40" fill="#111111"/>
</svg>
